# xmcd CD database file generated by OrangeCD 5.2
#
# Track frame offsets:
#	150
#	19302
#	34950
#	53320
#	70345
#	87172
#	102077
#	115342
#	131462
#	142780
#	157267
#	171175
#	180477
#	194190
#	208470
#	225607
#	241390
#
# Disc length: 3503 seconds
#
# Revision: 2
# Processed by: cddbd v1.5.1PL0 Copyright (c) Steve Scherf et al.
# Submitted via: OrangeCD 5.2
#
DISCID=f10dad11
DTITLE=Nashville Fantasy - Line Dance - Honky Tonk Line Dance Party
DYEAR=1999
DGENRE=Country
TTITLE0=Dance The Night Away
TTITLE1=Locomotion
TTITLE2=Down To New Orleans
TTITLE3=You Can't Stop Love
TTITLE4=Strut Your Stuff
TTITLE5=I'd Rather Ride Around With You
TTITLE6=Blame it on Texas
TTITLE7=An out of Control Raging Fire
TTITLE8=She Lays it all on the line
TTITLE9=If i ain't got you
TTITLE10=I brake for Brunettes
TTITLE11=Don't be cruel
TTITLE12=Walk on
TTITLE13=Honky Tonk Dancing Machine
TTITLE14=You better think twice
TTITLE15=Honky Tonk Twist
TTITLE16=Rocky Top
EXTD=
EXTT0=
EXTT1=
EXTT2=
EXTT3=
EXTT4=
EXTT5=
EXTT6=
EXTT7=
EXTT8=
EXTT9=
EXTT10=
EXTT11=
EXTT12=
EXTT13=
EXTT14=
EXTT15=
EXTT16=
PLAYORDER=
